<mxfile host="app.diagrams.net" modified="2023-01-16T14:09:07.254Z" agent="5.0 (Windows NT 10.0; Win64; x64) AppleWebKit/537.36 (KHTML, like Gecko) Chrome/109.0.0.0 Safari/537.36 Edg/109.0.1518.55" etag="Aw_6gY4FzG-ZRgYiJCum" version="20.8.5" type="github">
  <diagram id="C5RBs43oDa-KdzZeNtuy" name="Page-1">
    <mxGraphModel dx="1434" dy="788" grid="1" gridSize="10" guides="1" tooltips="1" connect="1" arrows="1" fold="1" page="1" pageScale="1" pageWidth="827" pageHeight="1169" math="0" shadow="0">
      <root>
        <mxCell id="WIyWlLk6GJQsqaUBKTNV-0" />
        <mxCell id="WIyWlLk6GJQsqaUBKTNV-1" parent="WIyWlLk6GJQsqaUBKTNV-0" />
        <mxCell id="dJgHjkN-x3h8GKoePzzS-7" style="edgeStyle=orthogonalEdgeStyle;rounded=0;orthogonalLoop=1;jettySize=auto;html=1;exitX=0;exitY=0.5;exitDx=0;exitDy=0;" edge="1" parent="WIyWlLk6GJQsqaUBKTNV-1" source="dJgHjkN-x3h8GKoePzzS-0" target="dJgHjkN-x3h8GKoePzzS-3">
          <mxGeometry relative="1" as="geometry" />
        </mxCell>
        <mxCell id="dJgHjkN-x3h8GKoePzzS-9" style="edgeStyle=orthogonalEdgeStyle;rounded=0;orthogonalLoop=1;jettySize=auto;html=1;exitX=1;exitY=0.5;exitDx=0;exitDy=0;" edge="1" parent="WIyWlLk6GJQsqaUBKTNV-1" source="dJgHjkN-x3h8GKoePzzS-0" target="dJgHjkN-x3h8GKoePzzS-2">
          <mxGeometry relative="1" as="geometry" />
        </mxCell>
        <mxCell id="dJgHjkN-x3h8GKoePzzS-0" value="Bắt đầu" style="ellipse;whiteSpace=wrap;html=1;" vertex="1" parent="WIyWlLk6GJQsqaUBKTNV-1">
          <mxGeometry x="340" y="50" width="120" height="80" as="geometry" />
        </mxCell>
        <mxCell id="dJgHjkN-x3h8GKoePzzS-12" style="edgeStyle=orthogonalEdgeStyle;rounded=0;orthogonalLoop=1;jettySize=auto;html=1;exitX=0.5;exitY=1;exitDx=0;exitDy=0;entryX=0;entryY=0.5;entryDx=0;entryDy=0;" edge="1" parent="WIyWlLk6GJQsqaUBKTNV-1" source="dJgHjkN-x3h8GKoePzzS-1" target="dJgHjkN-x3h8GKoePzzS-4">
          <mxGeometry relative="1" as="geometry" />
        </mxCell>
        <mxCell id="dJgHjkN-x3h8GKoePzzS-1" value="thiết lập vị trí vít me,&lt;br&gt;tốc độ stepper" style="shape=parallelogram;perimeter=parallelogramPerimeter;whiteSpace=wrap;html=1;fixedSize=1;" vertex="1" parent="WIyWlLk6GJQsqaUBKTNV-1">
          <mxGeometry x="165" y="280" width="150" height="70" as="geometry" />
        </mxCell>
        <mxCell id="dJgHjkN-x3h8GKoePzzS-10" style="edgeStyle=orthogonalEdgeStyle;rounded=0;orthogonalLoop=1;jettySize=auto;html=1;exitX=0.5;exitY=1;exitDx=0;exitDy=0;" edge="1" parent="WIyWlLk6GJQsqaUBKTNV-1" source="dJgHjkN-x3h8GKoePzzS-2" target="dJgHjkN-x3h8GKoePzzS-6">
          <mxGeometry relative="1" as="geometry" />
        </mxCell>
        <mxCell id="dJgHjkN-x3h8GKoePzzS-2" value="Tự động" style="shape=parallelogram;perimeter=parallelogramPerimeter;whiteSpace=wrap;html=1;fixedSize=1;" vertex="1" parent="WIyWlLk6GJQsqaUBKTNV-1">
          <mxGeometry x="485" y="160" width="120" height="60" as="geometry" />
        </mxCell>
        <mxCell id="dJgHjkN-x3h8GKoePzzS-8" style="edgeStyle=orthogonalEdgeStyle;rounded=0;orthogonalLoop=1;jettySize=auto;html=1;exitX=0.5;exitY=1;exitDx=0;exitDy=0;entryX=0.5;entryY=0;entryDx=0;entryDy=0;" edge="1" parent="WIyWlLk6GJQsqaUBKTNV-1" source="dJgHjkN-x3h8GKoePzzS-3" target="dJgHjkN-x3h8GKoePzzS-1">
          <mxGeometry relative="1" as="geometry" />
        </mxCell>
        <mxCell id="dJgHjkN-x3h8GKoePzzS-3" value="Điều khiển&amp;nbsp;&lt;br&gt;bằng tay" style="shape=parallelogram;perimeter=parallelogramPerimeter;whiteSpace=wrap;html=1;fixedSize=1;" vertex="1" parent="WIyWlLk6GJQsqaUBKTNV-1">
          <mxGeometry x="180" y="160" width="120" height="60" as="geometry" />
        </mxCell>
        <mxCell id="dJgHjkN-x3h8GKoePzzS-4" value="Kết thúc" style="ellipse;whiteSpace=wrap;html=1;" vertex="1" parent="WIyWlLk6GJQsqaUBKTNV-1">
          <mxGeometry x="360" y="480" width="120" height="80" as="geometry" />
        </mxCell>
        <mxCell id="dJgHjkN-x3h8GKoePzzS-11" style="edgeStyle=orthogonalEdgeStyle;rounded=0;orthogonalLoop=1;jettySize=auto;html=1;exitX=0.5;exitY=1;exitDx=0;exitDy=0;entryX=1;entryY=0.5;entryDx=0;entryDy=0;" edge="1" parent="WIyWlLk6GJQsqaUBKTNV-1" source="dJgHjkN-x3h8GKoePzzS-6" target="dJgHjkN-x3h8GKoePzzS-4">
          <mxGeometry relative="1" as="geometry" />
        </mxCell>
        <mxCell id="dJgHjkN-x3h8GKoePzzS-6" value="thiết lập vị trí vít me,&lt;br&gt;tốc độ stepper,&lt;br&gt;số lần cắt" style="shape=parallelogram;perimeter=parallelogramPerimeter;whiteSpace=wrap;html=1;fixedSize=1;" vertex="1" parent="WIyWlLk6GJQsqaUBKTNV-1">
          <mxGeometry x="470" y="310" width="150" height="70" as="geometry" />
        </mxCell>
        <mxCell id="dJgHjkN-x3h8GKoePzzS-13" value="Điều khiển xy lanh" style="shape=parallelogram;perimeter=parallelogramPerimeter;whiteSpace=wrap;html=1;fixedSize=1;" vertex="1" parent="WIyWlLk6GJQsqaUBKTNV-1">
          <mxGeometry x="180" y="390" width="120" height="60" as="geometry" />
        </mxCell>
      </root>
    </mxGraphModel>
  </diagram>
</mxfile>
